<svg width="30" height="30" viewBox="0 0 30 30" fill="none" xmlns="http://www.w3.org/2000/svg">
<path d="M8.125 22.5H21.875" stroke="#F39700" stroke-linecap="round" stroke-linejoin="round"/>
<path d="M8.125 7.5H21.875" stroke="#F39700" stroke-linecap="round" stroke-linejoin="round"/>
<path d="M14.375 5H15.625" stroke="#F39700" stroke-linecap="round" stroke-linejoin="round"/>
<path d="M20 2.5H10C8.96447 2.5 8.125 3.33947 8.125 4.375V25.625C8.125 26.6605 8.96447 27.5 10 27.5H20C21.0355 27.5 21.875 26.6605 21.875 25.625V4.375C21.875 3.33947 21.0355 2.5 20 2.5Z" stroke="#F39700" stroke-linecap="round" stroke-linejoin="round"/>
<path d="M15 25.625C15.3452 25.625 15.625 25.3452 15.625 25C15.625 24.6548 15.3452 24.375 15 24.375C14.6548 24.375 14.375 24.6548 14.375 25C14.375 25.3452 14.6548 25.625 15 25.625Z" fill="#F39700"/>
</svg>
