<svg width="44" height="45" viewBox="0 0 44 45" fill="none" xmlns="http://www.w3.org/2000/svg">
<g id="&#227;&#130;&#185;&#227;&#131;&#158;&#227;&#131;&#155;">
<path id="Vector" d="M13.501 31.719H30.499" stroke="white" stroke-linecap="round" stroke-linejoin="round"/>
<path id="Vector_2" d="M13.501 13.281H30.499" stroke="white" stroke-linecap="round" stroke-linejoin="round"/>
<path id="Vector_3" d="M21.228 10.208H22.7733" stroke="white" stroke-linecap="round" stroke-linejoin="round"/>
<path id="Vector_4" d="M28.1811 7.13501H15.8189C14.5387 7.13501 13.501 8.16688 13.501 9.43975V35.5601C13.501 36.833 14.5387 37.8649 15.8189 37.8649H28.1811C29.4612 37.8649 30.499 36.833 30.499 35.5601V9.43975C30.499 8.16688 29.4612 7.13501 28.1811 7.13501Z" stroke="white" stroke-linecap="round" stroke-linejoin="round"/>
<path id="Vector_5" d="M22.2733 34.7919C22.2733 34.9374 22.1539 35.0602 22.0007 35.0602C21.8474 35.0602 21.728 34.9374 21.728 34.7919C21.728 34.6465 21.8474 34.5237 22.0007 34.5237C22.1539 34.5237 22.2733 34.6465 22.2733 34.7919Z" fill="white" stroke="white"/>
</g>
</svg>
